<svg id="Layer_1" enable-background="new 0 0 64 64" height="512" viewBox="0 0 64 64" width="512" xmlns="http://www.w3.org/2000/svg"><path d="m54 34.015c0 5.36-2.18 9.83-5.99 12.97-.01.01-.01.02-.01.02-3.86 3.18-9.38 5.01-16 5.01s-12.14-1.83-16-5.01c0 0 0-.01-.01-.02-3.81-3.14-5.99-7.61-5.99-12.97 0-3.36 1.28-6.83 3.79-10.34-1.12-.88-3.79-3.76-3.79-11.14 0-.27.21-.49.47-.5.05 0 .24-.01.53-.02h.01c2.29-.09 10.98-.18 13.67 2.86.02.01.03.03.04.04 1.71-.55 3.42-.76 4.73-.89h5.13c1.31.13 3.02.34 4.72.89 0 0 .01.01.02.01h.01c2.46-2.64 9.97-2.91 12.94-2.91.29 0 .54 0 .74.01.25 0 .42.01.47.01.27.01.48.23.48.5 0 6.85-2.53 9.93-3.77 11.03 2.53 3.45 3.81 6.96 3.81 10.45z" fill="#ffb56d"/><path d="m15.002 22.506s-3-4.118-3-7.993c0 0 4.514 1.012 7.498 3.996 0 0-2.498 1.517-4.498 3.997" fill="#ff8a80"/><path d="m15.99 46.985c-3.81-3.14-5.99-7.61-5.99-12.97 0-3.36 1.28-6.83 3.79-10.34-1.75 3.61-2.37 6.86-2.37 9.85 0 7.55 4.3 13.12 4.57 13.46z" fill="#ffe0b2"/><path d="m48.998 22.506s3-4.118 3-7.993c0 0-4.514 1.012-7.498 3.996 0 0 2.498 1.517 4.498 3.997" fill="#ff8a80"/><path d="m54 34.015c0 5.36-2.18 9.83-5.99 12.97.27-.34 4.57-5.91 4.57-13.46 0-2.99-.64-6.35-2.39-9.96 2.53 3.45 3.81 6.96 3.81 10.45z" fill="#f2883f"/><path d="m53.01 12.025c-6.35 1.16-8.44 4.29-9.09 5.12-1.94-1.28-4.3-2.12-4.59-2.22 2.46-2.64 9.97-2.91 12.94-2.91.29 0 .73.01.74.01z" fill="#f2883f"/><path d="m24.68 14.875v.05c-.25.08-2.64.92-4.6 2.22-.65-.83-2.73-3.98-9.07-5.13 2.29-.09 10.98-.18 13.67 2.86z" fill="#f2883f"/><path d="m45 40c0 3.866-5.82 7-13 7s-13-3.134-13-7 5.82-7 13-7 13 3.134 13 7" fill="#ffe0b2"/><path d="m24.501 40.536c-.166 0-.329-.083-.424-.233-.147-.233-.077-.542.156-.689.133-.084 3.313-2.062 7.782-2.062s7.636 1.978 7.768 2.063c.233.147.302.456.154.689-.145.232-.454.303-.689.155-.03-.019-3.066-1.907-7.232-1.907-4.167 0-7.219 1.888-7.249 1.907-.083.052-.175.077-.266.077z" fill="#f2883f"/><path d="m36.562 27.992c-.039.176-.06.36-.06.548 0 1.381 1.119 2.5 2.5 2.5s2.5-1.119 2.5-2.5c0-.766-.344-1.451-.887-1.91" fill="#fddf7f"/><path d="m23.408 26.63c-.543.459-.887 1.145-.887 1.91 0 1.381 1.119 2.5 2.5 2.5s2.5-1.119 2.5-2.5c0-.188-.021-.372-.061-.548" fill="#fddf7f"/><g fill="#f2883f"><path d="m32 42.505c-2.19 0-2.866-1.1-2.937-1.225-.135-.241-.049-.545.192-.68.236-.132.537-.051.676.184.029.046.492.722 2.068.722 1.603 0 2.076-.7 2.095-.73.147-.227.452-.302.685-.16.231.142.31.438.175.672-.072.124-.77 1.217-2.954 1.217z"/><path d="m34.503 29.54c-.162 0-.321-.078-.417-.223-.153-.23-.091-.54.139-.692.128-.085 3.197-2.094 9.215-3.097.268-.049.529.138.575.411.046.272-.139.53-.411.575-5.785.964-8.795 2.923-8.825 2.943-.086.056-.181.083-.276.083z"/><path d="m29.52 29.54c.162 0 .321-.078.417-.223.153-.23.091-.54-.139-.692-.128-.085-3.197-2.094-9.215-3.097-.268-.049-.529.138-.575.411-.046.272.139.53.411.575 5.785.964 8.795 2.923 8.825 2.943.086.056.182.083.276.083z"/><path d="m34.502 26.521c-.126 0-.251-.047-.349-.142-1.137-1.104-1.138-3.254-1.138-3.345.002-.277.266-.495.502-.497.276.001.499.226.498.501-.001.503.146 1.955.835 2.624.198.192.202.509.01.707-.097.101-.228.152-.358.152z"/><path d="m29.516 26.521c-.13 0-.261-.051-.358-.151-.192-.198-.188-.515.01-.707.689-.669.836-2.121.835-2.624-.001-.276.222-.5.498-.501.265-.025.5.22.502.497 0 .091-.001 2.241-1.138 3.345-.098.094-.223.141-.349.141z"/></g><path d="m8 38.016c-.184 0-.36-.101-.448-.276-.124-.247-.023-.547.224-.671 6.082-3.043 11.511-3.069 11.725-3.061.276.001.499.225.499.501-.001.276-.225.499-.5.499-.071 0-5.43.029-11.275 2.955-.073.036-.149.053-.225.053z" fill="#fddf7f"/><path d="m19.5 32.052c-.025 0-.051-.002-.077-.006-.269-.042-6.646-1.05-11.684-4.111-.236-.144-.311-.451-.167-.687s.45-.311.687-.167c4.863 2.955 11.252 3.968 11.316 3.978.273.042.46.297.418.57-.037.246-.25.423-.493.423z" fill="#fddf7f"/><path d="m56 38.016c-.075 0-.151-.017-.223-.053-5.849-2.927-11.187-2.955-11.274-2.955h-.001c-.275 0-.499-.223-.5-.499s.222-.5.499-.501c.189-.008 5.643.017 11.725 3.061.247.124.347.424.224.671-.091.175-.267.276-.45.276z" fill="#fddf7f"/><path d="m44.5 32.052c-.243 0-.456-.177-.494-.424-.042-.273.145-.528.418-.57.064-.01 6.453-1.022 11.316-3.978.237-.143.544-.068.687.167.144.236.068.543-.167.687-5.038 3.061-11.415 4.07-11.684 4.111-.026.005-.051.007-.076.007z" fill="#fddf7f"/><path d="m36 34c0 2.41-3.6 4-4 4-.19 0-1.1-.36-2-1h-.01v-.01c-1-.69-1.99-1.73-1.99-2.99 0-2 2.26-2 4-2s4 0 4 2z" fill="#ff8a80"/><path d="m29.99 36.99c-1-.69-1.99-1.73-1.99-2.99 0-2 2.26-2 4-2 0 0-2.46.32-3 2s.84 2.87.99 2.99z" fill="#fff"/></svg>