<svg id="Layer_1" enable-background="new 0 0 64 64" height="512" viewBox="0 0 64 64" width="512" xmlns="http://www.w3.org/2000/svg"><path d="m54 34.015c0 5.36-2.18 9.83-5.99 12.97-.01.01-.01.02-.01.02-3.86 3.18-9.38 5.01-16 5.01s-12.14-1.83-16-5.01c0 0 0-.01-.01-.02-3.81-3.14-5.99-7.61-5.99-12.97 0-3.36 1.28-6.83 3.79-10.34-1.12-.88-3.79-3.76-3.79-11.14 0-.27.21-.49.47-.5.05 0 .24-.01.53-.02h.01c2.29-.09 10.98-.18 13.67 2.86.02.01.03.03.04.04 1.71-.55 3.42-.76 4.73-.89h5.13c1.31.13 3.02.34 4.72.89 0 0 .01.01.02.01h.01c2.46-2.64 9.97-2.91 12.94-2.91.29 0 .54 0 .74.01.25 0 .42.01.47.01.27.01.48.23.48.5 0 6.85-2.53 9.93-3.77 11.03 2.53 3.45 3.81 6.96 3.81 10.45z" fill="#ffb56d"/><path d="m15.002 22.506s-3-4.118-3-7.993c0 0 4.514 1.012 7.498 3.996 0 0-2.498 1.517-4.498 3.997" fill="#ff8a80"/><path d="m15.99 46.985c-3.81-3.14-5.99-7.61-5.99-12.97 0-3.36 1.28-6.83 3.79-10.34-1.75 3.61-2.37 6.86-2.37 9.85 0 7.55 4.3 13.12 4.57 13.46z" fill="#ffe0b2"/><path d="m48.998 22.506s3-4.118 3-7.993c0 0-4.514 1.012-7.498 3.996 0 0 2.498 1.517 4.498 3.997" fill="#ff8a80"/><path d="m54 34.015c0 5.36-2.18 9.83-5.99 12.97.27-.34 4.57-5.91 4.57-13.46 0-2.99-.64-6.35-2.39-9.96 2.53 3.45 3.81 6.96 3.81 10.45z" fill="#f2883f"/><path d="m53.01 12.025c-6.35 1.16-8.44 4.29-9.09 5.12-1.94-1.28-4.3-2.12-4.59-2.22 2.46-2.64 9.97-2.91 12.94-2.91.29 0 .73.01.74.01z" fill="#f2883f"/><path d="m24.68 14.875v.05c-.25.08-2.64.92-4.6 2.22-.65-.83-2.73-3.98-9.07-5.13 2.29-.09 10.98-.18 13.67 2.86z" fill="#f2883f"/><path d="m45 40c0 3.866-5.82 7-13 7s-13-3.134-13-7 5.82-7 13-7 13 3.134 13 7" fill="#ffe0b2"/><path d="m20.43 17.391c-.053 0-.105-.008-.156-.025-.127-.042-.232-.133-.292-.253-2.688-5.418 1.146-8.949 1.185-8.984.134-.121.324-.16.493-.102.171.058.298.202.332.379.733 3.791 2.839 5.447 4.028 6.096.183.1.284.302.256.507-.028.206-.181.373-.384.419-.723.166-1.384.351-2.022.566-1.054.336-2.132.786-3.212 1.341-.071.037-.149.056-.228.056z" fill="#ff5252"/><path d="m43.597 17.391c-.079 0-.157-.018-.229-.055-1.08-.555-2.158-1.005-3.203-1.338-.646-.219-1.308-.404-2.03-.569-.203-.046-.355-.213-.384-.419-.028-.206.073-.408.256-.507 1.189-.649 3.295-2.305 4.028-6.096.034-.177.161-.321.332-.379.168-.058.358-.019.493.102.039.035 3.872 3.566 1.184 8.984-.059.12-.165.211-.292.253-.05.015-.103.024-.155.024z" fill="#ff5252"/><path d="m39.516 41.984s0-3.984-7.5-3.984c-7.516 0-7.516 3.984-7.516 3.984s2 2 7.508 2c5.534 0 7.508-2 7.508-2z" fill="#fddf7f"/><path d="m32.01 44.489c-.18 0-.36 0-.54-.011-.149-.009-.287-.084-.374-.206-.088-.121-.117-.275-.079-.42 1.108-4.241 6.88-4.363 7.535-4.363.137 0 .288.056.382.156 1.074 1.132 1.086 2.295 1.086 2.344 0 .132-.052.258-.144.352-.088.087-2.192 2.148-7.866 2.148z" fill="#ff8a80"/><path d="m36.5 31.021c-.122 0-.244-.044-.339-.132-.182-.168-.214-.442-.076-.647.086-.128 2.146-3.143 5.272-4.185.265-.089.545.055.632.316.087.262-.054.546-.316.632-1.166.389-2.181 1.104-2.97 1.81 1.199-.437 2.81-.815 4.797-.815.276 0 .5.224.5.5s-.224.5-.5.5c-4.25 0-6.663 1.892-6.687 1.911-.091.073-.202.11-.313.11z" fill="#f2883f"/><path d="m27.499 31.021c-.11 0-.221-.037-.313-.11-.023-.019-2.436-1.911-6.686-1.911-.276 0-.5-.224-.5-.5s.224-.5.5-.5c1.985 0 3.594.377 4.792.814-.79-.706-1.805-1.421-2.966-1.809-.262-.087-.403-.37-.316-.632.087-.261.368-.405.632-.316 3.125 1.042 5.186 4.057 5.272 4.185.138.205.105.479-.076.647-.095.087-.216.132-.339.132z" fill="#f2883f"/><path d="m32.008 44.484c-5.65 0-7.774-2.059-7.861-2.147-.094-.093-.147-.22-.147-.353 0-.183.091-4.484 8.016-4.484 7.909 0 8 4.301 8 4.484 0 .131-.052.258-.144.351-.087.088-2.187 2.149-7.864 2.149zm-6.983-2.713c.576.432 2.651 1.713 6.982 1.713 4.35 0 6.411-1.279 6.983-1.712-.138-.763-1.043-3.272-6.975-3.272-5.935 0-6.849 2.501-6.99 3.271z" fill="#f2883f"/><g fill="#fddf7f"><path d="m8 38.016c-.184 0-.36-.101-.448-.276-.124-.247-.023-.547.224-.671 6.082-3.043 11.511-3.069 11.725-3.061.276.001.499.225.499.501-.001.276-.225.499-.5.499-.071 0-5.43.029-11.275 2.955-.073.036-.149.053-.225.053z"/><path d="m19.5 32.052c-.025 0-.051-.002-.077-.006-.269-.042-6.646-1.05-11.684-4.111-.236-.144-.311-.451-.167-.687s.45-.311.687-.167c4.863 2.955 11.252 3.968 11.316 3.978.273.042.46.297.418.57-.037.246-.25.423-.493.423z"/><path d="m56 38.016c-.075 0-.151-.017-.223-.053-5.849-2.927-11.187-2.955-11.274-2.955h-.001c-.275 0-.499-.223-.5-.499s.222-.5.499-.501c.189-.008 5.643.017 11.725 3.061.247.124.347.424.224.671-.091.175-.267.276-.45.276z"/><path d="m44.5 32.052c-.243 0-.456-.177-.494-.424-.042-.273.145-.528.418-.57.064-.01 6.453-1.022 11.316-3.978.237-.143.544-.068.687.167.144.236.068.543-.167.687-5.038 3.061-11.415 4.07-11.684 4.111-.026.005-.051.007-.076.007z"/></g><path d="m36 34c0 2.41-3.6 4-4 4-.19 0-1.1-.36-2-1h-.01v-.01c-1-.69-1.99-1.73-1.99-2.99 0-2 2.26-2 4-2s4 0 4 2z" fill="#ff8a80"/><path d="m29.99 36.99c-1-.69-1.99-1.73-1.99-2.99 0-2 2.26-2 4-2 0 0-2.46.32-3 2s.84 2.87.99 2.99z" fill="#fff"/></svg>