<svg id="Layer_1" enable-background="new 0 0 64 64" height="512" viewBox="0 0 64 64" width="512" xmlns="http://www.w3.org/2000/svg"><path d="m54 34.015c0 5.36-2.18 9.83-5.99 12.97-.01.01-.01.02-.01.02-3.86 3.18-9.38 5.01-16 5.01s-12.14-1.83-16-5.01c0 0 0-.01-.01-.02-3.81-3.14-5.99-7.61-5.99-12.97 0-3.36 1.28-6.83 3.79-10.34-1.12-.88-3.79-3.76-3.79-11.14 0-.27.21-.49.47-.5.05 0 .24-.01.53-.02h.01c2.29-.09 10.98-.18 13.67 2.86.02.01.03.03.04.04 1.71-.55 3.42-.76 4.73-.89h5.13c1.31.13 3.02.34 4.72.89 0 0 .01.01.02.01h.01c2.46-2.64 9.97-2.91 12.94-2.91.29 0 .54 0 .74.01.25 0 .42.01.47.01.27.01.48.23.48.5 0 6.85-2.53 9.93-3.77 11.03 2.53 3.45 3.81 6.96 3.81 10.45z" fill="#ffb56d"/><path d="m15.002 22.506s-3-4.118-3-7.993c0 0 4.514 1.012 7.498 3.996 0 0-2.498 1.517-4.498 3.997" fill="#ff8a80"/><path d="m15.99 46.985c-3.81-3.14-5.99-7.61-5.99-12.97 0-3.36 1.28-6.83 3.79-10.34-1.75 3.61-2.37 6.86-2.37 9.85 0 7.55 4.3 13.12 4.57 13.46z" fill="#ffe0b2"/><path d="m48.998 22.506s3-4.118 3-7.993c0 0-4.514 1.012-7.498 3.996 0 0 2.498 1.517 4.498 3.997" fill="#ff8a80"/><path d="m54 34.015c0 5.36-2.18 9.83-5.99 12.97.27-.34 4.57-5.91 4.57-13.46 0-2.99-.64-6.35-2.39-9.96 2.53 3.45 3.81 6.96 3.81 10.45z" fill="#f2883f"/><path d="m53.01 12.025c-6.35 1.16-8.44 4.29-9.09 5.12-1.94-1.28-4.3-2.12-4.59-2.22 2.46-2.64 9.97-2.91 12.94-2.91.29 0 .73.01.74.01z" fill="#f2883f"/><path d="m24.68 14.875v.05c-.25.08-2.64.92-4.6 2.22-.65-.83-2.73-3.98-9.07-5.13 2.29-.09 10.98-.18 13.67 2.86z" fill="#f2883f"/><path d="m45 40c0 3.866-5.82 7-13 7s-13-3.134-13-7 5.82-7 13-7 13 3.134 13 7" fill="#ffe0b2"/><path d="m39.249 38.593c-.029.018-2.842 1.752-6.749 1.894v-2.505c0-.276-.224-.5-.5-.5s-.5.224-.5.5v2.505c-3.905-.142-6.703-1.875-6.732-1.894-.234-.146-.542-.077-.69.155-.147.233-.079.542.154.689.133.084 3.299 2.063 7.768 2.063 4.468 0 7.649-1.978 7.783-2.062.233-.147.303-.456.156-.689-.149-.233-.457-.304-.69-.156z" fill="#f2883f"/><path d="m29.057 29.738c.089.172.263.269.444.269.078 0 .157-.018.231-.057.245-.127.34-.43.212-.674-.048-.092-1.203-2.251-3.943-2.251-2.741 0-3.896 2.159-3.943 2.251-.127.244-.033.544.211.672.243.128.546.035.675-.209.037-.069.938-1.714 3.058-1.714 2.118.001 3.018 1.646 3.055 1.713z" fill="#f2883f"/><path d="m41.943 29.277c-.048-.092-1.203-2.251-3.943-2.251-2.741 0-3.896 2.159-3.943 2.251-.127.244-.033.544.211.672.243.128.546.035.675-.209.037-.069.938-1.714 3.058-1.714s3.02 1.645 3.057 1.712c.089.172.263.269.444.269.078 0 .157-.018.231-.057.243-.126.338-.429.21-.673z" fill="#f2883f"/><g fill="#fddf7f"><path d="m8 38.016c-.184 0-.36-.101-.448-.276-.124-.247-.023-.547.224-.671 6.082-3.043 11.511-3.069 11.725-3.061.276.001.499.225.499.501-.001.276-.225.499-.5.499-.071 0-5.43.029-11.275 2.955-.073.036-.149.053-.225.053z"/><path d="m19.5 32.052c-.025 0-.051-.002-.077-.006-.269-.042-6.646-1.05-11.684-4.111-.236-.144-.311-.451-.167-.687s.45-.311.687-.167c4.863 2.955 11.252 3.968 11.316 3.978.273.042.46.297.418.57-.037.246-.25.423-.493.423z"/><path d="m56 38.016c-.075 0-.151-.017-.223-.053-5.849-2.927-11.187-2.955-11.274-2.955h-.001c-.275 0-.499-.223-.5-.499s.222-.5.499-.501c.189-.008 5.643.017 11.725 3.061.247.124.347.424.224.671-.091.175-.267.276-.45.276z"/><path d="m44.5 32.052c-.243 0-.456-.177-.494-.424-.042-.273.145-.528.418-.57.064-.01 6.453-1.022 11.316-3.978.237-.143.544-.068.687.167.144.236.068.543-.167.687-5.038 3.061-11.415 4.07-11.684 4.111-.026.005-.051.007-.076.007z"/></g><path d="m20 39c-2.757 0-5-1.794-5-4s2.243-4 5-4 5 1.794 5 4-2.243 4-5 4z" fill="#ff8a80"/><path d="m43 39c-2.757 0-5-1.794-5-4s2.243-4 5-4 5 1.794 5 4-2.243 4-5 4z" fill="#ff8a80"/><path d="m36 34c0 2.41-3.6 4-4 4-.19 0-1.1-.36-2-1h-.01v-.01c-1-.69-1.99-1.73-1.99-2.99 0-2 2.26-2 4-2s4 0 4 2z" fill="#ff8a80"/><path d="m29.99 36.99c-1-.69-1.99-1.73-1.99-2.99 0-2 2.26-2 4-2 0 0-2.46.32-3 2s.84 2.87.99 2.99z" fill="#fff"/></svg>